<?xml version="1.0" encoding="UTF-8"?>
<svg width="24px" height="24px" viewBox="0 0 24 24" version="1.1" xmlns="http://www.w3.org/2000/svg" xmlns:xlink="http://www.w3.org/1999/xlink">
    <!-- Generator: Sketch 49 (51002) - http://www.bohemiancoding.com/sketch -->
    <title>in</title>
    <desc>Created with Sketch.</desc>
    <defs></defs>
    <g id="Page-1" stroke="none" stroke-width="1" fill="none" fill-rule="evenodd">
        <g id="Extra-large:-Desktops---12-col" transform="translate(-1201.000000, -2625.000000)" fill="#FFFFFF">
            <g id="Footer-Content" transform="translate(191.000000, 2168.000000)">
                <g id="Group-7" transform="translate(738.000000, 457.000000)">
                    <path d="M284.000024,0 C287.259004,0 287.667657,0.0138138818 288.947585,0.0722132578 C290.224845,0.130469732 291.097168,0.333343257 291.860456,0.630008276 C292.649562,0.936628817 293.318773,1.34694874 293.985936,2.01406396 C294.653051,2.68122682 295.063371,3.35043794 295.370039,4.13954402 C295.666657,4.90283244 295.86953,5.77515526 295.927787,7.05241535 C295.986186,8.33234294 296,8.74099567 296,12.0000238 C296,15.2590043 295.986186,15.6676571 295.927787,16.9475847 C295.86953,18.2248447 295.666657,19.0971676 295.370039,19.860456 C295.063371,20.6495621 294.653051,21.3187732 293.985936,21.985936 C293.318773,22.6530513 292.649562,23.0633712 291.860456,23.3700394 C291.097168,23.6666567 290.224845,23.8695303 288.947585,23.9277867 C287.667657,23.9861861 287.259004,24 284.000024,24 C280.740996,24 280.332343,23.9861861 279.052415,23.9277867 C277.775155,23.8695303 276.902832,23.6666567 276.139544,23.3700394 C275.350438,23.0633712 274.681227,22.6530513 274.014064,21.985936 C273.346949,21.3187732 272.936629,20.6495621 272.630008,19.860456 C272.333343,19.0971676 272.13047,18.2248447 272.072213,16.9475847 C272.013814,15.6676571 272,15.2590043 272,12.0000238 C272,8.74099567 272.013814,8.33234294 272.072213,7.05241535 C272.13047,5.77515526 272.333343,4.90283244 272.630008,4.13954402 C272.936629,3.35043794 273.346949,2.68122682 274.014064,2.01406396 C274.681227,1.34694874 275.350438,0.936628817 276.139544,0.630008276 C276.902832,0.333343257 277.775155,0.130469732 279.052415,0.0722132578 C280.332343,0.0138138818 280.740996,0 284.000024,0 Z M284.000024,2.1621583 C280.79587,2.1621583 280.416322,2.17440026 279.15097,2.23213276 C277.980982,2.28548292 277.345591,2.48097316 276.922743,2.64531072 C276.362614,2.86299845 275.962869,3.12303286 275.542975,3.54297487 C275.123033,3.96286924 274.862998,4.3626144 274.645311,4.92274348 C274.480973,5.34559117 274.285483,5.9809821 274.232133,7.15097025 C274.1744,8.41632182 274.162158,8.79587013 274.162158,12.0000238 C274.162158,15.2041299 274.1744,15.5836782 274.232133,16.8490298 C274.285483,18.0190179 274.480973,18.6544088 274.645311,19.0772565 C274.862998,19.6373856 275.12308,20.0371308 275.542975,20.4570251 C275.962869,20.8769671 276.362614,21.1370016 276.922743,21.3546893 C277.345591,21.5190268 277.980982,21.7145171 279.15097,21.7678672 C280.416179,21.8255997 280.795632,21.8378417 284.000024,21.8378417 C287.204368,21.8378417 287.583869,21.8255997 288.84903,21.7678672 C290.019018,21.7145171 290.654409,21.5190268 291.077257,21.3546893 C291.637386,21.1370016 292.037131,20.8769671 292.457025,20.4570251 C292.876967,20.0371308 293.137002,19.6373856 293.354689,19.0772565 C293.519027,18.6544088 293.714517,18.0190179 293.767867,16.8490298 C293.8256,15.5836782 293.837842,15.2041299 293.837842,12.0000238 C293.837842,8.79587013 293.8256,8.41632182 293.767867,7.15097025 C293.714517,5.9809821 293.519027,5.34559117 293.354689,4.92274348 C293.137002,4.3626144 292.876967,3.96286924 292.457025,3.54297487 C292.037131,3.12303286 291.637386,2.86299845 291.077257,2.64531072 C290.654409,2.48097316 290.019018,2.28548292 288.84903,2.23213276 C287.583678,2.17440026 287.20413,2.1621583 284.000024,2.1621583 Z M284.000024,5.8378417 C287.403288,5.8378417 290.162158,8.59671206 290.162158,12.0000238 C290.162158,15.4032879 287.403288,18.1621583 284.000024,18.1621583 C280.596712,18.1621583 277.837842,15.4032879 277.837842,12.0000238 C277.837842,8.59671206 280.596712,5.8378417 284.000024,5.8378417 Z M284.000024,16 C286.209149,16 288,14.2091493 288,12.0000238 C288,9.79085069 286.209149,8 284.000024,8 C281.790851,8 280,9.79085069 280,12.0000238 C280,14.2091493 281.790851,16 284.000024,16 Z M291.845642,5.59438394 C291.845642,6.38968246 291.200915,7.03436203 290.405616,7.03436203 C289.610365,7.03436203 288.965638,6.38968246 288.965638,5.59438394 C288.965638,4.79908543 289.610365,4.15435822 290.405616,4.15435822 C291.200915,4.15435822 291.845642,4.79908543 291.845642,5.59438394 Z" id="in"></path>
                </g>
            </g>
        </g>
    </g>
</svg>