<?xml version="1.0" encoding="UTF-8"?>
<svg width="24px" height="20px" viewBox="0 0 24 20" version="1.1" xmlns="http://www.w3.org/2000/svg" xmlns:xlink="http://www.w3.org/1999/xlink">
    <!-- Generator: Sketch 49 (51002) - http://www.bohemiancoding.com/sketch -->
    <title>me</title>
    <desc>Created with Sketch.</desc>
    <defs></defs>
    <g id="Page-1" stroke="none" stroke-width="1" fill="none" fill-rule="evenodd">
        <g id="Extra-large:-Desktops---12-col" transform="translate(-1133.000000, -2628.000000)" fill="#FFFFFF" fill-rule="nonzero">
            <g id="Footer-Content" transform="translate(191.000000, 2168.000000)">
                <g id="Group-7" transform="translate(738.000000, 457.000000)">
                    <path d="M206.845938,6.95441595 C206.875757,6.65468167 206.763408,6.35842767 206.543417,6.15669515 L204.302521,3.41025641 L204.302521,3 L211.260504,3 L216.638655,14.9999999 L221.366947,3 L228,3 L228,3.41025641 L226.084034,5.27920228 C225.918856,5.40729854 225.83692,5.61783382 225.871149,5.82621083 L225.871149,19.5584046 C225.83692,19.7667816 225.918856,19.9773168 226.084034,20.1054131 L227.955182,21.974359 L227.955182,22.3846154 L218.543417,22.3846154 L218.543417,21.974359 L220.481793,20.0598291 C220.672269,19.8660968 220.672269,19.8091169 220.672269,19.5128206 L220.672269,8.41310542 L215.282913,22.3390313 L214.554622,22.3390313 L208.280112,8.41310542 L208.280112,17.7464387 C208.227797,18.1388383 208.355894,18.5338988 208.627451,18.8176639 L211.148459,21.928775 L211.148459,22.3390313 L204,22.3390313 L204,21.928775 L206.521008,18.8176639 C206.790588,18.5334284 206.911215,18.1357472 206.845938,17.7464387 L206.845938,6.95441595 Z" id="me"></path>
                </g>
            </g>
        </g>
    </g>
</svg>