<?xml version="1.0" encoding="UTF-8"?>
<svg width="24px" height="14px" viewBox="0 0 24 14" version="1.1" xmlns="http://www.w3.org/2000/svg" xmlns:xlink="http://www.w3.org/1999/xlink">
    <!-- Generator: Sketch 49 (51002) - http://www.bohemiancoding.com/sketch -->
    <title>so</title>
    <desc>Created with Sketch.</desc>
    <defs></defs>
    <g id="Page-1" stroke="none" stroke-width="1" fill="none" fill-rule="evenodd">
        <g id="Extra-large:-Desktops---12-col" transform="translate(-1065.000000, -2632.000000)" fill="#FFFFFF">
            <g id="Footer-Content" transform="translate(191.000000, 2168.000000)">
                <g id="Group-7" transform="translate(738.000000, 457.000000)">
                    <path d="M136,18.0763042 C136,18.3783321 136.107972,18.606698 136.323872,18.7614948 C136.539794,18.9162684 136.770591,18.9709927 137.016287,18.925714 C137.247084,18.8804122 137.40902,18.797351 137.502117,18.6765538 C137.595168,18.5557566 137.641717,18.3556579 137.641717,18.0763042 L137.641717,14.7919195 C137.641717,14.5578444 137.561687,14.3596488 137.401605,14.1973326 C137.241546,14.0349932 137.046106,13.9538352 136.815286,13.9538352 C136.591926,13.9538352 136.400217,14.0349932 136.240135,14.1973326 C136.080052,14.3596488 136,14.5578444 136,14.7919195 L136,18.0763042 L136,18.0763042 Z M138.568637,19.4806618 C138.568637,19.6996517 138.644959,19.8638477 138.79758,19.9733427 C138.950225,20.0828377 139.145664,20.1375619 139.383899,20.1375619 C139.629595,20.1375619 139.828742,20.0828145 139.981387,19.9733427 C140.134008,19.8638709 140.21033,19.6996517 140.21033,19.4806618 L140.21033,11.8246478 C140.21033,11.5981386 140.130278,11.4037026 139.970219,11.2413864 C139.810137,11.0790702 139.614697,10.9978889 139.383899,10.9978889 C139.16054,10.9978889 138.968807,11.0790702 138.808748,11.2413864 C138.648666,11.4037258 138.568637,11.5981386 138.568637,11.8246478 L138.568637,19.4806618 L138.568637,19.4806618 Z M141.126105,19.8430766 C141.126105,20.0620434 141.204281,20.2262626 141.360633,20.3357576 C141.516985,20.4452293 141.718008,20.4999768 141.963727,20.4999768 C142.201962,20.4999768 142.397402,20.4452293 142.550023,20.3357576 C142.702668,20.2262626 142.77899,20.0620434 142.77899,19.8430766 L142.77899,12.8552651 C142.77899,12.6212132 142.698937,12.4211146 142.538878,12.2550155 C142.378796,12.0889164 142.187087,12.0058785 141.963727,12.0058785 C141.732907,12.0058785 141.535613,12.0889164 141.371824,12.2550155 C141.208034,12.4211146 141.126128,12.6212132 141.126128,12.8552651 L141.126128,19.8430766 L141.126105,19.8430766 Z M143.694742,19.877053 C143.694742,20.2923355 143.970211,20.4999768 144.521173,20.4999768 C145.072111,20.4999768 145.347581,20.2923355 145.347581,19.877053 L145.347581,8.55158863 C145.347581,7.91736262 145.157725,7.55873065 144.778013,7.47566951 C144.532318,7.41525929 144.290329,7.48699497 144.052094,7.69085333 C143.813836,7.89471169 143.694719,8.18160798 143.694719,8.55158863 L143.694719,19.877053 L143.694742,19.877053 Z M146.308073,20.2054915 L146.308073,7.88338622 C146.308073,7.49077786 146.42346,7.256726 146.654281,7.18120743 C147.15311,7.06041021 147.648231,7 148.139623,7 C149.278734,7 150.339716,7.27181115 151.322476,7.81543344 C152.305258,8.35905573 153.100062,9.10087365 153.70684,10.0408872 C154.313642,10.980924 154.665433,12.0171807 154.762215,13.1497504 C155.216372,12.9534346 155.700303,12.8552883 156.21403,12.8552883 C157.256383,12.8552883 158.147968,13.2290286 158.888763,13.9765093 C159.62958,14.7240131 160,15.6224845 160,16.671993 C160,17.7290441 159.62958,18.6312984 158.888763,19.378779 C158.147968,20.1262597 157.260113,20.5 156.225198,20.5 L146.509051,20.4886745 C146.44202,20.4660236 146.391764,20.4244814 146.35826,20.3640944 C146.324756,20.3037074 146.308073,20.2507934 146.308073,20.2054915 L146.308073,20.2054915 L146.308073,20.2054915 Z" id="so"></path>
                </g>
            </g>
        </g>
    </g>
</svg>