<?xml version="1.0" encoding="UTF-8"?>
<svg width="24px" height="20px" viewBox="0 0 24 20" version="1.1" xmlns="http://www.w3.org/2000/svg" xmlns:xlink="http://www.w3.org/1999/xlink">
    <!-- Generator: Sketch 49 (51002) - http://www.bohemiancoding.com/sketch -->
    <title>tw</title>
    <desc>Created with Sketch.</desc>
    <defs></defs>
    <g id="Page-1" stroke="none" stroke-width="1" fill="none" fill-rule="evenodd">
        <g id="Extra-large:-Desktops---12-col" transform="translate(-997.000000, -2628.000000)" fill="#FFFFFF">
            <g id="Footer-Content" transform="translate(191.000000, 2168.000000)">
                <g id="Group-7" transform="translate(738.000000, 457.000000)">
                    <path d="M89.1727417,6.1621524 C90.1898222,5.5381004 90.9702412,4.54857349 91.3379116,3.3698086 C90.3856313,3.94763453 89.3333333,4.36800289 88.2091918,4.593355 C87.3132594,3.61249549 86.0327522,3 84.6156013,3 C81.8982215,3 79.693608,5.26074395 79.693608,8.04875406 C79.693608,8.44456482 79.735869,8.82881907 79.8203909,9.19862766 C75.7281211,8.9877212 72.100722,6.97977609 69.6707167,3.92163236 C69.2466984,4.66991694 69.0044022,5.5381004 69.0044022,6.46262189 C69.0044022,8.21343445 69.8735693,9.75911882 71.1949287,10.664861 C70.389153,10.6403034 69.6284557,10.4106176 68.9635499,10.0350307 L68.9635499,10.097147 C68.9635499,12.5442398 70.6610319,14.5854099 72.9149498,15.0476706 C72.5022011,15.166125 72.0669132,15.2253521 71.6175383,15.2253521 C71.3005811,15.2253521 70.9906674,15.1950163 70.6906145,15.1357891 C71.3174855,17.1408451 73.1347068,18.6013001 75.2900158,18.6403034 C73.6052122,19.9953052 71.4808945,20.8028169 69.1748547,20.8028169 C68.7776017,20.8028169 68.3845747,20.7797039 68,20.7334778 C70.1792569,22.163597 72.7684451,23 75.5478077,23 C84.6057404,23 89.5573164,15.3076923 89.5573164,8.63524738 C89.5573164,8.41567353 89.5530903,8.19609967 89.5446381,7.98085952 C90.5067794,7.26868906 91.3421377,6.38028169 92,5.36764175 C91.1181546,5.76923077 90.1686917,6.04080896 89.1727417,6.1621524 Z" id="tw"></path>
                </g>
            </g>
        </g>
    </g>
</svg>